<?xml version="1.0" encoding="utf-8"?><svg id="logo" xmlns="http://www.w3.org/2000/svg" width="235" height="35" viewBox="0 0 232.885 43.403">
  <g id="BW_WR-pc2_goud_zwart-Copy" transform="translate(0 0)">
    <path id="Fill-1" d="M47.621,21.369h1.257l.261-.016.276-.016.276-.015.26-.047.261-.045.245-.061.23-.077.215-.076.2-.121.185-.122.168-.137.138-.168.108-.183.077-.2.046-.228.031-.244-.031-.274-.046-.244-.077-.213-.108-.184-.122-.151-.154-.138-.184-.106-.2-.091-.215-.077-.215-.061-.246-.046L50,17.987l-.261-.015-.26-.016H47.621v3.412Zm0,6.914h1.334l.291-.016h.307l.307-.03.291-.03.29-.046.277-.047.26-.076.246-.091.215-.122.215-.137.184-.151.154-.184.122-.213.092-.228.046-.275.031-.289-.031-.335-.061-.274L52.1,25.48l-.122-.214-.154-.183-.184-.168-.2-.137-.23-.106-.246-.092-.26-.076-.276-.046-.276-.046-.291-.03-.291-.016H47.621v3.914ZM43.173,14.8h7.7l.568.016.552.046.536.076.491.107.492.152.445.183.414.2.383.258.338.274.306.3.261.351.23.381.168.411.138.457.077.472.031.533-.016.365-.046.365-.062.335-.077.321-.107.3L55.857,21l-.154.259-.184.244-.2.228-.215.213-.245.184-.261.183-.276.167-.306.152-.323.137-.337.122v.046l.4.091.384.107.353.121.322.152.307.167.276.184.246.2.23.229.2.228.169.259.152.274.123.289.091.319.062.335.046.351.016.381-.047.7-.122.64-.184.563-.246.5-.322.457-.354.381-.414.35-.445.289-.491.229-.521.2-.537.168-.552.122-.567.091-.567.06-.583.031-.553.015H43.173V14.8Z" transform="translate(10.002 3.136)" fill="#fff" fill-rule="evenodd"/>
    <path id="Fill-3" d="M63.085,21.7h1.18l.26-.016H64.8l.29-.016.277-.015.276-.031.26-.046.26-.061.246-.076.23-.107.215-.137.184-.152.154-.183.138-.213.092-.259.061-.289.031-.319-.031-.289-.046-.244-.092-.214-.108-.2-.138-.183-.168-.137-.2-.137-.215-.107-.229-.091-.261-.061-.26-.06-.291-.046-.291-.031-.307-.03H63.085V21.7Zm-4.464-6.9h7.96l.536.016.537.046.521.076.491.107.476.137.445.183.414.214.384.244.353.274.306.3.276.336.23.38.185.412.122.456.092.472.03.533-.016.4-.046.4-.061.365-.077.351-.122.335-.138.319-.154.289-.185.274-.215.259-.245.228-.26.214-.291.2-.307.168-.353.152-.368.137-.384.107v.046l.246.076.23.107.2.121.184.137.169.168.138.183.138.2.122.228.108.244.107.259.108.274.107.3.123.3.122.335.138.351.154.381,1.625,4.523H68.115l-.951-3L66.98,27.9l-.154-.457-.154-.426-.168-.365-.154-.335-.154-.289-.169-.244-.168-.228-.185-.183-.184-.152-.2-.121-.215-.092-.246-.076-.246-.046-.276-.03H63.085v6.563H58.622V14.8Z" transform="translate(13.694 3.136)" fill="#fff" fill-rule="evenodd"/>
    <path id="Fill-4" d="M81.767,18.231H81.72l-2.162,6.5h4.2l-1.994-6.5ZM79.037,14.8h5.475l6.427,16.615H86.061l-1.243-3.548H78.53l-1.319,3.548H72.672L79.037,14.8Z" transform="translate(17.053 3.136)" fill="#fff" fill-rule="evenodd"/>
    <path id="Fill-5" d="M91.042,14.8h5.691l5.66,11.285h.046L102.361,14.8h4.08V31.419H100.9L95.045,20.058H95l.138,11.361h-4.1V14.8" transform="translate(21.443 3.136)" fill="#fff" fill-rule="evenodd"/>
    <path id="Fill-6" d="M113.145,28.145h1.718l.6-.031.583-.06.537-.091.506-.152.46-.168.429-.228.384-.259.353-.288.322-.335.261-.381.245-.412.185-.456.154-.488.107-.533.061-.563.031-.594-.031-.609-.061-.563-.122-.518-.154-.488-.184-.457-.246-.411L119,19.693l-.323-.335-.353-.3-.383-.259-.429-.213-.476-.183-.491-.137-.536-.092-.567-.06-.583-.016h-1.718V28.145ZM108.682,14.8h6.089l1.058.016,1.028.06.981.122.936.183.859.228.829.289.751.365.69.427.614.518.552.579.461.685.4.761.323.838.215.96.138,1.051.061,1.158-.061,1.111-.138,1.021-.23.944-.323.853-.4.761-.475.686-.568.609-.613.533-.705.457-.752.381-.812.319-.874.259-.92.2-.967.138-1.012.076-1.043.03h-6.089V14.8Z" transform="translate(25.66 3.136)" fill="#fff" fill-rule="evenodd"/>
    <path id="Fill-7" d="M124.786,14.8h4.54L131.5,27.567h.046L133.8,14.8h5.661l2.346,12.762h.046L144.036,14.8h4.356l-3.758,16.615h-5.721l-2.378-12.762h-.046l-2.208,12.762H128.5L124.786,14.8" transform="translate(29.509 3.136)" fill="#fff" fill-rule="evenodd"/>
    <path id="Fill-8" d="M147.687,14.8H159.5v3.152h-7.346v3.412h6.932v3.137h-6.932v3.777h7.608v3.137H147.687V14.8" transform="translate(34.983 3.136)" fill="#fff" fill-rule="evenodd"/>
    <path id="Fill-9" d="M162.233,14.8h11.81v3.152h-7.332v3.412h6.932v3.137h-6.932v3.777H174.3v3.137h-12.07V14.8" transform="translate(38.459 3.136)" fill="#fff" fill-rule="evenodd"/>
    <path id="Fill-10" d="M181.251,21.7h1.18l.261-.016h.276l.291-.016.276-.015.276-.031.276-.046.26-.061.246-.076.23-.107.215-.137.184-.152.154-.183.138-.213.092-.259.061-.289.031-.319-.031-.289-.046-.244-.092-.214-.108-.2-.152-.183-.169-.137-.185-.137-.215-.107-.245-.091-.246-.061-.276-.06-.276-.046-.307-.031-.291-.03h-1.809V21.7ZM176.8,14.8h7.96l.536.016.537.046.521.076.491.107.476.137.445.183.414.214.384.244.337.274.322.3.261.336.229.38.185.412.122.456.092.472.03.533-.015.4-.047.4-.061.365-.077.351-.122.335-.122.319-.169.289-.184.274-.215.259-.23.228-.276.214-.276.2-.323.168-.337.152-.368.137-.384.107v.046l.246.076.23.107.2.121.184.137.154.168.138.183.138.2.123.228.107.244.108.259.107.274.108.3.122.3.122.335.138.351.153.381,1.625,4.523H186.3l-.951-3-.184-.518-.154-.457-.168-.426-.154-.365-.154-.335-.169-.289-.154-.244-.168-.228-.185-.183-.2-.152-.2-.121-.215-.092L183,24.932l-.245-.046-.276-.03h-1.227v6.563H176.8V14.8Z" transform="translate(41.942 3.136)" fill="#fff" fill-rule="evenodd"/>
    <path id="Fill-11" d="M15.034,22.714l-.276-.64-.307-.609-.337-.594-.736-1.157-.384-.563-.4-.564-.384-.548-.4-.549-.368-.533-.368-.548-.337-.533-.323-.549-.291-.532-.245-.549-.2-.548-.185.046-.184.06-.169.061-.184.046-.169.061-.169.076-.168.061-.338.121-.168.077-.154.061-.154.076-.169.061-.152.076-.154.076-.138.077.107,1.386.185,1.34.276,1.263.337,1.219.4,1.142.476,1.082L9.313,23.2l.552.96.6.9.613.853.644.791.66.731.66.67.674.61.66.563.66.518.184-.563.154-.533.138-.518.092-.5.077-.472.046-.456.031-.442v-.426l-.031-.426-.046-.412-.061-.4-.185-.793-.122-.381-.276-.761" transform="translate(1.362 2.872)" fill="#a89027" fill-rule="evenodd"/>
    <path id="Fill-12" d="M19.889,10.749l.629.091.614.107.613.107.614.137.6.137.6.152.583.152.582.183.553.183.552.2.537.2.536.213.506.228.981.488.476.274-.031.991-.046.96-.092.96-.122.914-.138.914-.185.867-.2.868-.23.823-.26.823-.276.791-.291.761-.323.747-.337.716-.353.716-.368.67-.384.67,3.236,3.686L29,29.618l.506-.883.506-.914.46-.944.445-.975.429-1.005.384-1.035.353-1.066.322-1.112.291-1.127.246-1.173.215-1.2.154-1.233.122-1.28.077-1.309.03-1.326-.735-.518-.782-.5-.813-.457-.843-.426-.89-.411-.92-.366L27.619,10l-.981-.321-1-.288-1.012-.259-1.044-.244-1.058-.213L21.453,8.5l-1.089-.151-1.1-.122-1.1-.091.077.152.092.167.107.168.092.167.215.335.092.168.122.167.215.335.107.152.246.335.122.152.108.152.138.167" transform="translate(4.022 1.541)" fill="#a89027" fill-rule="evenodd"/>
    <path id="Fill-13" d="M4.949,13.494l.016.991.046.96.092.96.108.914.152.914.169.867.2.868.23.823.261.823L6.5,22.4l.291.761.322.747.337.716.368.716.368.67.4.67L5.333,30.369l-.552-.854-.506-.883-.506-.914-.461-.944L2.863,25.8l-.429-1.005-.383-1.035L1.7,22.693l-.323-1.112-.291-1.127L.839,19.281l-.2-1.2L.471,16.846l-.122-1.28L.272,14.256.256,12.931l.552-.4.567-.381.6-.366.629-.35.644-.321.66-.319.69-.289.691-.289.721-.258.735-.244L7.5,9.474l.767-.214.767-.2.8-.183.8-.167.813-.152-.123.335-.046.183-.046.167-.047.168-.046.167-.046.168-.031.167-.03.168-.062.335-.03.152-.016.167-.031.3-.015.167-.415.091-.414.107-.4.122-.4.121-.4.121-.384.122-.383.137-.368.137-.368.152-.368.152-.353.152-.353.167-.337.168-.675.335-.307.2" transform="translate(-0.256 1.644)" fill="#a89027" fill-rule="evenodd"/>
    <path id="Fill-14" d="M17.287,37.318l-.461-.167-.491-.2-.522-.244-.552-.259-.567-.289-.6-.319-.6-.365-.63-.381-.644-.426-.659-.457-.66-.488-.675-.518-.674-.548-.675-.594-.675-.624L7.547,30.8l3.205-3.656.445.426.889.793.445.365.429.365.445.321.429.319.429.3.414.275.4.258.4.244.384.229.383.2.353.183.353.184.338.152.322-.152.353-.184.368-.183.368-.2.384-.229.4-.244.414-.258.414-.275.429-.3.43-.319.444-.321.429-.365.445-.365.89-.793.46-.426L27.042,30.8l-.675.639-.675.624-.674.594-.675.548-.674.518-.66.488-.66.457-.644.426-.629.381-.614.365-.583.319-.567.289-.552.259-.522.244-.491.2-.46.167" transform="translate(1.487 6.086)" fill="#a89027" fill-rule="evenodd"/>
    <path id="Fill-15" d="M21.333,25.88l.461-.67.414-.67.338-.656.306-.639.246-.64.215-.624.154-.609.122-.609.092-.579.046-.563.031-.549v-.518l-.031-.5-.046-.472-.061-.456-.062-.412.215.061.215.061.429.121.429.152.215.061.2.076.215.077.2.091.2.076.2.077.2.091.184.091.184.091.2.091-.152,1.736-.277,1.644-.4,1.538L25.52,24.3l-.6,1.355-.66,1.249-.72,1.173-.783,1.065-.812.975L21.118,31l-.843.807-.828.7-.813.624-.782.533-.736.456-.674.381-.092-.046-.092-.046-.091-.061-.092-.046-.092-.046-.092-.06L15.8,34.15l-.108-.061-.092-.061-.107-.061-.092-.06-.107-.061-.092-.061-.107-.076-.108-.061-.092-.061.982-1.37.735-1.356.506-1.339.307-1.295.138-1.249-.031-1.219L17.361,24.6l-.26-1.081-.354-1.035-.4-.945-.445-.853-.445-.777-.444-.669-.384-.564-.337-.456-.23-.319-.2-.275-.2-.289-.2-.3-.2-.321-.215-.319-.2-.335-.185-.351-.2-.35-.184-.366-.338-.73-.138-.366-.154-.365-.122-.365-.107-.381-.077-.351-.123-.609-.091-.624-.047-.67v-.67l.047-.716.091-.716.154-.747.215-.761.291-.791.353-.793.415-.807.521-.823.583-.837.691-.838.767-.853L16.1.325l.338.137-.429.793-.353.761-.291.731-.246.685-.2.656-.154.639-.108.594-.046.593-.03.549.015.548.047.533.091.533.108.5.138.519.154.518.184.518.23.563.291.609.353.61.384.639.414.656.445.67.46.67.461.7.461.686.444.7.414.7.4.7.368.7.306.7.246.7.2.685.047.259.046.274.092.579.016.289.03.289v.929l-.016.319-.03.335-.047.319-.046.335-.061.335-.154.7.26.092" transform="translate(2.333 -0.325)" fill="#a89027" fill-rule="evenodd"/>
  </g>
</svg>
